%TF.GenerationSoftware,KiCad,Pcbnew,(7.0.0-0)*%
%TF.CreationDate,2023-03-14T18:39:12-04:00*%
%TF.ProjectId,v3 - habit pcb,7633202d-2068-4616-9269-74207063622e,rev?*%
%TF.SameCoordinates,Original*%
%TF.FileFunction,Copper,L2,Bot*%
%TF.FilePolarity,Positive*%
%FSLAX46Y46*%
G04 Gerber Fmt 4.6, Leading zero omitted, Abs format (unit mm)*
G04 Created by KiCad (PCBNEW (7.0.0-0)) date 2023-03-14 18:39:12*
%MOMM*%
%LPD*%
G01*
G04 APERTURE LIST*
%TA.AperFunction,SMDPad,CuDef*%
%ADD10R,0.300000X1.600000*%
%TD*%
%TA.AperFunction,SMDPad,CuDef*%
%ADD11R,0.900000X1.800000*%
%TD*%
%TA.AperFunction,ComponentPad*%
%ADD12C,1.500000*%
%TD*%
%TA.AperFunction,ComponentPad*%
%ADD13C,1.600000*%
%TD*%
%TA.AperFunction,ComponentPad*%
%ADD14O,1.600000X1.600000*%
%TD*%
%TA.AperFunction,ViaPad*%
%ADD15C,0.685800*%
%TD*%
%TA.AperFunction,Conductor*%
%ADD16C,0.250000*%
%TD*%
G04 APERTURE END LIST*
D10*
%TO.P,U1,1,AD5/SCL*%
%TO.N,Net-(U1-AD5{slash}SCL)*%
X154948249Y-78363749D03*
%TO.P,U1,2,IOREF*%
%TO.N,unconnected-(U1-IOREF-Pad2)*%
X154948249Y-74763549D03*
%TO.P,U1,3,AD4/SDA*%
%TO.N,Net-(U1-AD4{slash}SDA)*%
X155448249Y-78363749D03*
%TO.P,U1,4,VBATT*%
%TO.N,unconnected-(U1-VBATT-Pad4)*%
X155448249Y-74763549D03*
%TO.P,U1,5,AD3*%
%TO.N,Net-(U1-AD3)*%
X155948249Y-78363749D03*
%TO.P,U1,6,3V3*%
%TO.N,Net-(U1-3V3)*%
X155948249Y-74763549D03*
%TO.P,U1,7,AD2*%
%TO.N,Net-(U1-AD2)*%
X156448249Y-78363749D03*
%TO.P,U1,8,5V*%
%TO.N,unconnected-(U1-5V-Pad8)*%
X156448249Y-74763549D03*
%TO.P,U1,9,AD1*%
%TO.N,Net-(U1-AD1)*%
X156948249Y-78363749D03*
%TO.P,U1,10,VIN*%
%TO.N,unconnected-(U1-VIN-Pad10)*%
X156948249Y-74763549D03*
%TO.P,U1,11,AD0*%
%TO.N,Net-(U1-AD0)*%
X157448249Y-78363749D03*
%TO.P,U1,12,GND*%
%TO.N,unconnected-(U1-GND-Pad12)*%
X157448249Y-74763549D03*
%TO.P,U1,13,AREF*%
%TO.N,unconnected-(U1-AREF-Pad13)*%
X157948249Y-78363749D03*
%TO.P,U1,14,GND*%
%TO.N,Net-(R1-Pad1)*%
X157948249Y-74763549D03*
%TO.P,U1,15,SCK*%
%TO.N,unconnected-(U1-SCK-Pad15)*%
X158448249Y-78363749D03*
%TO.P,U1,16,RSV2*%
%TO.N,unconnected-(U1-RSV2-Pad16)*%
X158448249Y-74763549D03*
%TO.P,U1,17,MISO*%
%TO.N,unconnected-(U1-MISO-Pad17)*%
X158948249Y-78363749D03*
%TO.P,U1,18,RSV1*%
%TO.N,unconnected-(U1-RSV1-Pad18)*%
X158948249Y-74763549D03*
%TO.P,U1,19,MOSI*%
%TO.N,unconnected-(U1-MOSI-Pad19)*%
X159448249Y-78363749D03*
%TO.P,U1,20,RSV0*%
%TO.N,unconnected-(U1-RSV0-Pad20)*%
X159448249Y-74763549D03*
%TO.P,U1,21,SS*%
%TO.N,unconnected-(U1-SS-Pad21)*%
X159948249Y-78363749D03*
%TO.P,U1,22,RESET*%
%TO.N,unconnected-(U1-RESET-Pad22)*%
X159948249Y-74763549D03*
%TO.P,U1,23,IO9*%
%TO.N,Net-(U1-IO9)*%
X160448249Y-78363749D03*
%TO.P,U1,24,IO0*%
%TO.N,Net-(U1-IO0)*%
X160448249Y-74763549D03*
%TO.P,U1,25,IO8*%
%TO.N,Net-(U1-IO8)*%
X160948249Y-78363749D03*
%TO.P,U1,26,IO1*%
%TO.N,Net-(U1-IO1)*%
X160948249Y-74763549D03*
%TO.P,U1,27,IO7*%
%TO.N,Net-(U1-IO7)*%
X161448249Y-78363749D03*
%TO.P,U1,28,IO2*%
%TO.N,Net-(U1-IO2)*%
X161448249Y-74763549D03*
%TO.P,U1,29,IO6*%
%TO.N,Net-(U1-IO6)*%
X161948249Y-78363749D03*
%TO.P,U1,30,IO3*%
%TO.N,Net-(U1-IO3)*%
X161948249Y-74763549D03*
%TO.P,U1,31,IO5*%
%TO.N,Net-(U1-IO5)*%
X162448249Y-78363749D03*
%TO.P,U1,32,IO4*%
%TO.N,Net-(SW1-A)*%
X162448249Y-74763549D03*
D11*
%TO.P,U1,F1*%
%TO.N,N/C*%
X153198249Y-76563649D03*
%TO.P,U1,F2*%
X164198249Y-76563649D03*
%TD*%
D12*
%TO.P,SW1,1,1*%
%TO.N,Net-(U1-3V3)*%
X155443200Y-89219600D03*
%TO.P,SW1,2,2*%
X161943200Y-89219600D03*
%TO.P,SW1,3,K*%
%TO.N,Net-(SW1-K)*%
X161943200Y-84719600D03*
%TO.P,SW1,4,A*%
%TO.N,Net-(SW1-A)*%
X155443200Y-84719600D03*
%TD*%
D13*
%TO.P,R1,1*%
%TO.N,Net-(R1-Pad1)*%
X153517600Y-92151200D03*
D14*
%TO.P,R1,2*%
%TO.N,Net-(SW1-K)*%
X163677599Y-92151199D03*
%TD*%
D15*
%TO.N,Net-(U1-IO5)*%
X162524600Y-80772000D03*
%TO.N,Net-(U1-IO6)*%
X161899600Y-79705200D03*
%TO.N,Net-(U1-IO7)*%
X161875000Y-76500000D03*
%TO.N,Net-(U1-IO8)*%
X160925000Y-82200000D03*
%TO.N,Net-(U1-IO9)*%
X158350000Y-82500000D03*
%TO.N,Net-(U1-AD0)*%
X156800000Y-82225000D03*
%TO.N,Net-(U1-AD1)*%
X157850000Y-76700000D03*
%TO.N,Net-(U1-AD2)*%
X154889200Y-80010000D03*
%TO.N,Net-(U1-IO0)*%
X159100000Y-76400000D03*
%TO.N,Net-(U1-IO3)*%
X161502046Y-73374913D03*
%TO.N,Net-(U1-IO2)*%
X160774800Y-76504800D03*
%TO.N,Net-(U1-IO1)*%
X159816800Y-73355200D03*
%TO.N,Net-(U1-AD3)*%
X156475000Y-76450000D03*
%TO.N,Net-(U1-AD4{slash}SDA)*%
X155549600Y-76657200D03*
%TO.N,Net-(U1-AD5{slash}SCL)*%
X154925100Y-76063052D03*
%TO.N,Net-(U1-3V3)*%
X153949047Y-73329447D03*
%TO.N,Net-(SW1-A)*%
X163017200Y-72440800D03*
%TO.N,Net-(R1-Pad1)*%
X154635200Y-72237600D03*
%TD*%
D16*
%TO.N,Net-(U1-AD1)*%
X157850000Y-76700000D02*
X157406684Y-76700000D01*
X157406684Y-76700000D02*
X156948250Y-77158434D01*
X156948250Y-77158434D02*
X156948250Y-78363750D01*
%TO.N,Net-(U1-IO9)*%
X158350000Y-82500000D02*
X160448250Y-80401750D01*
X160448250Y-80401750D02*
X160448250Y-78363750D01*
%TO.N,Net-(U1-AD0)*%
X157448250Y-81576750D02*
X157448250Y-78363750D01*
X156800000Y-82225000D02*
X157448250Y-81576750D01*
%TO.N,Net-(U1-IO8)*%
X160925000Y-82200000D02*
X160925000Y-79487000D01*
X160925000Y-79487000D02*
X160948250Y-79463750D01*
X160948250Y-79463750D02*
X160948250Y-78363750D01*
%TO.N,Net-(U1-AD3)*%
X156475000Y-76450000D02*
X156475000Y-76609037D01*
X156475000Y-76609037D02*
X155948250Y-77135787D01*
X155948250Y-77135787D02*
X155948250Y-78363750D01*
%TO.N,Net-(U1-IO7)*%
X161875000Y-76500000D02*
X161448250Y-76926750D01*
X161448250Y-76926750D02*
X161448250Y-78363750D01*
%TO.N,Net-(U1-IO0)*%
X159816600Y-76400000D02*
X160448250Y-75768350D01*
X159100000Y-76400000D02*
X159816600Y-76400000D01*
X160448250Y-75768350D02*
X160448250Y-74763550D01*
%TO.N,Net-(U1-IO5)*%
X162524600Y-80772000D02*
X162524600Y-79446316D01*
X162448250Y-79369966D02*
X162448250Y-78363750D01*
X162524600Y-79446316D02*
X162448250Y-79369966D01*
%TO.N,Net-(U1-IO6)*%
X161948250Y-78363750D02*
X161948250Y-79656550D01*
X161948250Y-79656550D02*
X161899600Y-79705200D01*
%TO.N,Net-(U1-AD2)*%
X155902000Y-80010000D02*
X154889200Y-80010000D01*
X156448250Y-79463750D02*
X155902000Y-80010000D01*
X156448250Y-78363750D02*
X156448250Y-79463750D01*
%TO.N,Net-(U1-IO3)*%
X161502046Y-73374913D02*
X161948250Y-73821117D01*
X161948250Y-73821117D02*
X161948250Y-74763550D01*
%TO.N,Net-(U1-IO2)*%
X160774800Y-76504800D02*
X161448250Y-75831350D01*
X161448250Y-75831350D02*
X161448250Y-74763550D01*
%TO.N,Net-(U1-IO1)*%
X160948250Y-74763550D02*
X160948250Y-73663550D01*
X160948250Y-73663550D02*
X160639900Y-73355200D01*
X160639900Y-73355200D02*
X159816800Y-73355200D01*
%TO.N,Net-(U1-AD4{slash}SDA)*%
X155448250Y-78363750D02*
X155448250Y-76758550D01*
X155448250Y-76758550D02*
X155549600Y-76657200D01*
%TO.N,Net-(U1-AD5{slash}SCL)*%
X154925100Y-76063052D02*
X154948250Y-76086202D01*
X154924600Y-76916084D02*
X154948250Y-76939734D01*
X154948250Y-76374666D02*
X154924600Y-76398316D01*
X154948250Y-76939734D02*
X154948250Y-78363750D01*
X154948250Y-76086202D02*
X154948250Y-76374666D01*
X154924600Y-76398316D02*
X154924600Y-76916084D01*
%TO.N,Net-(U1-3V3)*%
X155614147Y-73329447D02*
X155948250Y-73663550D01*
X155948250Y-73663550D02*
X155948250Y-74763550D01*
X153949047Y-73329447D02*
X155614147Y-73329447D01*
%TO.N,Net-(SW1-A)*%
X162448250Y-74763550D02*
X162448250Y-73009750D01*
X162448250Y-73009750D02*
X163017200Y-72440800D01*
%TO.N,Net-(R1-Pad1)*%
X157948250Y-73663550D02*
X156522300Y-72237600D01*
X157948250Y-74763550D02*
X157948250Y-73663550D01*
X156522300Y-72237600D02*
X154635200Y-72237600D01*
%TD*%
M02*
