%TF.GenerationSoftware,KiCad,Pcbnew,(7.0.0-0)*%
%TF.CreationDate,2023-03-14T18:39:12-04:00*%
%TF.ProjectId,v3 - habit pcb,7633202d-2068-4616-9269-74207063622e,rev?*%
%TF.SameCoordinates,Original*%
%TF.FileFunction,Paste,Bot*%
%TF.FilePolarity,Positive*%
%FSLAX46Y46*%
G04 Gerber Fmt 4.6, Leading zero omitted, Abs format (unit mm)*
G04 Created by KiCad (PCBNEW (7.0.0-0)) date 2023-03-14 18:39:12*
%MOMM*%
%LPD*%
G01*
G04 APERTURE LIST*
%ADD10R,0.810000X1.710000*%
G04 APERTURE END LIST*
%TO.C,U1*%
G36*
X162556050Y-79067050D02*
G01*
X162336050Y-79067050D01*
X162336050Y-77767050D01*
X162556050Y-77767050D01*
X162556050Y-79067050D01*
G37*
G36*
X162556050Y-75357050D02*
G01*
X162336050Y-75357050D01*
X162336050Y-74057050D01*
X162556050Y-74057050D01*
X162556050Y-75357050D01*
G37*
G36*
X162066050Y-75357050D02*
G01*
X161846050Y-75357050D01*
X161846050Y-74057050D01*
X162066050Y-74057050D01*
X162066050Y-75357050D01*
G37*
G36*
X162056050Y-79067050D02*
G01*
X161836050Y-79067050D01*
X161836050Y-77767050D01*
X162056050Y-77767050D01*
X162056050Y-79067050D01*
G37*
G36*
X161556050Y-79067050D02*
G01*
X161336050Y-79067050D01*
X161336050Y-77767050D01*
X161556050Y-77767050D01*
X161556050Y-79067050D01*
G37*
G36*
X161556050Y-75357050D02*
G01*
X161336050Y-75357050D01*
X161336050Y-74057050D01*
X161556050Y-74057050D01*
X161556050Y-75357050D01*
G37*
G36*
X161056050Y-79067050D02*
G01*
X160836050Y-79067050D01*
X160836050Y-77767050D01*
X161056050Y-77767050D01*
X161056050Y-79067050D01*
G37*
G36*
X161056050Y-75357050D02*
G01*
X160836050Y-75357050D01*
X160836050Y-74057050D01*
X161056050Y-74057050D01*
X161056050Y-75357050D01*
G37*
G36*
X160556050Y-79067050D02*
G01*
X160336050Y-79067050D01*
X160336050Y-77767050D01*
X160556050Y-77767050D01*
X160556050Y-79067050D01*
G37*
G36*
X160556050Y-75357050D02*
G01*
X160336050Y-75357050D01*
X160336050Y-74057050D01*
X160556050Y-74057050D01*
X160556050Y-75357050D01*
G37*
G36*
X160056050Y-79067050D02*
G01*
X159836050Y-79067050D01*
X159836050Y-77767050D01*
X160056050Y-77767050D01*
X160056050Y-79067050D01*
G37*
G36*
X160056050Y-75357050D02*
G01*
X159836050Y-75357050D01*
X159836050Y-74057050D01*
X160056050Y-74057050D01*
X160056050Y-75357050D01*
G37*
G36*
X159566050Y-79067050D02*
G01*
X159346050Y-79067050D01*
X159346050Y-77767050D01*
X159566050Y-77767050D01*
X159566050Y-79067050D01*
G37*
G36*
X159556050Y-75357050D02*
G01*
X159336050Y-75357050D01*
X159336050Y-74057050D01*
X159556050Y-74057050D01*
X159556050Y-75357050D01*
G37*
G36*
X159056050Y-79067050D02*
G01*
X158836050Y-79067050D01*
X158836050Y-77767050D01*
X159056050Y-77767050D01*
X159056050Y-79067050D01*
G37*
G36*
X159056050Y-75357050D02*
G01*
X158836050Y-75357050D01*
X158836050Y-74057050D01*
X159056050Y-74057050D01*
X159056050Y-75357050D01*
G37*
G36*
X158556050Y-79067050D02*
G01*
X158336050Y-79067050D01*
X158336050Y-77767050D01*
X158556050Y-77767050D01*
X158556050Y-79067050D01*
G37*
G36*
X158556050Y-75357050D02*
G01*
X158336050Y-75357050D01*
X158336050Y-74057050D01*
X158556050Y-74057050D01*
X158556050Y-75357050D01*
G37*
G36*
X158056050Y-79067050D02*
G01*
X157836050Y-79067050D01*
X157836050Y-77767050D01*
X158056050Y-77767050D01*
X158056050Y-79067050D01*
G37*
G36*
X158056050Y-75357050D02*
G01*
X157836050Y-75357050D01*
X157836050Y-74057050D01*
X158056050Y-74057050D01*
X158056050Y-75357050D01*
G37*
G36*
X157556050Y-79067050D02*
G01*
X157336050Y-79067050D01*
X157336050Y-77767050D01*
X157556050Y-77767050D01*
X157556050Y-79067050D01*
G37*
G36*
X157556050Y-75357050D02*
G01*
X157336050Y-75357050D01*
X157336050Y-74057050D01*
X157556050Y-74057050D01*
X157556050Y-75357050D01*
G37*
G36*
X157056050Y-79067050D02*
G01*
X156836050Y-79067050D01*
X156836050Y-77767050D01*
X157056050Y-77767050D01*
X157056050Y-79067050D01*
G37*
G36*
X157056050Y-75357050D02*
G01*
X156836050Y-75357050D01*
X156836050Y-74057050D01*
X157056050Y-74057050D01*
X157056050Y-75357050D01*
G37*
G36*
X156556050Y-79067050D02*
G01*
X156336050Y-79067050D01*
X156336050Y-77767050D01*
X156556050Y-77767050D01*
X156556050Y-79067050D01*
G37*
G36*
X156556050Y-75357050D02*
G01*
X156336050Y-75357050D01*
X156336050Y-74057050D01*
X156556050Y-74057050D01*
X156556050Y-75357050D01*
G37*
G36*
X156056050Y-79067050D02*
G01*
X155836050Y-79067050D01*
X155836050Y-77767050D01*
X156056050Y-77767050D01*
X156056050Y-79067050D01*
G37*
G36*
X156056050Y-75357050D02*
G01*
X155836050Y-75357050D01*
X155836050Y-74057050D01*
X156056050Y-74057050D01*
X156056050Y-75357050D01*
G37*
G36*
X155556050Y-79067050D02*
G01*
X155336050Y-79067050D01*
X155336050Y-77767050D01*
X155556050Y-77767050D01*
X155556050Y-79067050D01*
G37*
G36*
X155556050Y-75357050D02*
G01*
X155336050Y-75357050D01*
X155336050Y-74057050D01*
X155556050Y-74057050D01*
X155556050Y-75357050D01*
G37*
G36*
X155056050Y-79067050D02*
G01*
X154836050Y-79067050D01*
X154836050Y-77767050D01*
X155056050Y-77767050D01*
X155056050Y-79067050D01*
G37*
G36*
X155056050Y-75357050D02*
G01*
X154836050Y-75357050D01*
X154836050Y-74057050D01*
X155056050Y-74057050D01*
X155056050Y-75357050D01*
G37*
%TD*%
D10*
%TO.C,U1*%
X153198249Y-76563649D03*
X164198249Y-76563649D03*
%TD*%
M02*
