%TF.GenerationSoftware,KiCad,Pcbnew,(7.0.0-0)*%
%TF.CreationDate,2023-03-14T18:39:12-04:00*%
%TF.ProjectId,v3 - habit pcb,7633202d-2068-4616-9269-74207063622e,rev?*%
%TF.SameCoordinates,Original*%
%TF.FileFunction,Legend,Top*%
%TF.FilePolarity,Positive*%
%FSLAX46Y46*%
G04 Gerber Fmt 4.6, Leading zero omitted, Abs format (unit mm)*
G04 Created by KiCad (PCBNEW (7.0.0-0)) date 2023-03-14 18:39:12*
%MOMM*%
%LPD*%
G01*
G04 APERTURE LIST*
%ADD10C,0.150000*%
%ADD11C,0.120000*%
G04 APERTURE END LIST*
D10*
%TO.C,SW1*%
X153512961Y-88302932D02*
X153560580Y-88160075D01*
X153560580Y-88160075D02*
X153560580Y-87921980D01*
X153560580Y-87921980D02*
X153512961Y-87826742D01*
X153512961Y-87826742D02*
X153465342Y-87779123D01*
X153465342Y-87779123D02*
X153370104Y-87731504D01*
X153370104Y-87731504D02*
X153274866Y-87731504D01*
X153274866Y-87731504D02*
X153179628Y-87779123D01*
X153179628Y-87779123D02*
X153132009Y-87826742D01*
X153132009Y-87826742D02*
X153084390Y-87921980D01*
X153084390Y-87921980D02*
X153036771Y-88112456D01*
X153036771Y-88112456D02*
X152989152Y-88207694D01*
X152989152Y-88207694D02*
X152941533Y-88255313D01*
X152941533Y-88255313D02*
X152846295Y-88302932D01*
X152846295Y-88302932D02*
X152751057Y-88302932D01*
X152751057Y-88302932D02*
X152655819Y-88255313D01*
X152655819Y-88255313D02*
X152608200Y-88207694D01*
X152608200Y-88207694D02*
X152560580Y-88112456D01*
X152560580Y-88112456D02*
X152560580Y-87874361D01*
X152560580Y-87874361D02*
X152608200Y-87731504D01*
X152560580Y-87398170D02*
X153560580Y-87160075D01*
X153560580Y-87160075D02*
X152846295Y-86969599D01*
X152846295Y-86969599D02*
X153560580Y-86779123D01*
X153560580Y-86779123D02*
X152560580Y-86541028D01*
X153560580Y-85636266D02*
X153560580Y-86207694D01*
X153560580Y-85921980D02*
X152560580Y-85921980D01*
X152560580Y-85921980D02*
X152703438Y-86017218D01*
X152703438Y-86017218D02*
X152798676Y-86112456D01*
X152798676Y-86112456D02*
X152846295Y-86207694D01*
%TO.C,R1*%
X158430933Y-90148580D02*
X158097600Y-89672390D01*
X157859505Y-90148580D02*
X157859505Y-89148580D01*
X157859505Y-89148580D02*
X158240457Y-89148580D01*
X158240457Y-89148580D02*
X158335695Y-89196200D01*
X158335695Y-89196200D02*
X158383314Y-89243819D01*
X158383314Y-89243819D02*
X158430933Y-89339057D01*
X158430933Y-89339057D02*
X158430933Y-89481914D01*
X158430933Y-89481914D02*
X158383314Y-89577152D01*
X158383314Y-89577152D02*
X158335695Y-89624771D01*
X158335695Y-89624771D02*
X158240457Y-89672390D01*
X158240457Y-89672390D02*
X157859505Y-89672390D01*
X159383314Y-90148580D02*
X158811886Y-90148580D01*
X159097600Y-90148580D02*
X159097600Y-89148580D01*
X159097600Y-89148580D02*
X159002362Y-89291438D01*
X159002362Y-89291438D02*
X158907124Y-89386676D01*
X158907124Y-89386676D02*
X158811886Y-89434295D01*
D11*
%TO.C,SW1*%
X154193200Y-83469600D02*
X154193200Y-85802934D01*
X154193200Y-85802934D02*
X154553200Y-85802934D01*
X154193200Y-88136266D02*
X154193200Y-90469599D01*
X154193200Y-90469599D02*
X163193200Y-90469600D01*
X154553200Y-85802934D02*
X154553200Y-88136266D01*
X154553200Y-88136266D02*
X154193200Y-88136266D01*
X163193200Y-83469601D02*
X154193200Y-83469600D01*
X163193200Y-90469600D02*
X163193200Y-83469601D01*
%TO.C,R1*%
X154557600Y-92151200D02*
X155327600Y-92151200D01*
X155327600Y-90781200D02*
X155327600Y-93521200D01*
X155327600Y-93521200D02*
X161867600Y-93521200D01*
X161867600Y-90781200D02*
X155327600Y-90781200D01*
X161867600Y-93521200D02*
X161867600Y-90781200D01*
X162637600Y-92151200D02*
X161867600Y-92151200D01*
%TO.C,U2*%
X154533200Y-73947800D02*
X154533200Y-78947800D01*
X154533200Y-78947800D02*
X155433200Y-78947800D01*
X155033200Y-73947800D02*
X154533200Y-73947800D01*
X161953200Y-73947800D02*
X162853200Y-73947800D01*
X162853200Y-73947800D02*
X162853200Y-78947800D01*
X162853200Y-78947800D02*
X162353200Y-78947800D01*
%TD*%
M02*
