%TF.GenerationSoftware,KiCad,Pcbnew,(7.0.0-0)*%
%TF.CreationDate,2023-03-14T18:39:13-04:00*%
%TF.ProjectId,v3 - habit pcb,7633202d-2068-4616-9269-74207063622e,rev?*%
%TF.SameCoordinates,Original*%
%TF.FileFunction,Soldermask,Bot*%
%TF.FilePolarity,Negative*%
%FSLAX46Y46*%
G04 Gerber Fmt 4.6, Leading zero omitted, Abs format (unit mm)*
G04 Created by KiCad (PCBNEW (7.0.0-0)) date 2023-03-14 18:39:13*
%MOMM*%
%LPD*%
G01*
G04 APERTURE LIST*
G04 Aperture macros list*
%AMRoundRect*
0 Rectangle with rounded corners*
0 $1 Rounding radius*
0 $2 $3 $4 $5 $6 $7 $8 $9 X,Y pos of 4 corners*
0 Add a 4 corners polygon primitive as box body*
4,1,4,$2,$3,$4,$5,$6,$7,$8,$9,$2,$3,0*
0 Add four circle primitives for the rounded corners*
1,1,$1+$1,$2,$3*
1,1,$1+$1,$4,$5*
1,1,$1+$1,$6,$7*
1,1,$1+$1,$8,$9*
0 Add four rect primitives between the rounded corners*
20,1,$1+$1,$2,$3,$4,$5,0*
20,1,$1+$1,$4,$5,$6,$7,0*
20,1,$1+$1,$6,$7,$8,$9,0*
20,1,$1+$1,$8,$9,$2,$3,0*%
G04 Aperture macros list end*
%ADD10RoundRect,0.101600X0.150000X0.800000X-0.150000X0.800000X-0.150000X-0.800000X0.150000X-0.800000X0*%
%ADD11RoundRect,0.101600X0.450000X0.900000X-0.450000X0.900000X-0.450000X-0.900000X0.450000X-0.900000X0*%
%ADD12C,1.500000*%
%ADD13C,1.600000*%
%ADD14O,1.600000X1.600000*%
G04 APERTURE END LIST*
D10*
%TO.C,U1*%
X154948250Y-78363750D03*
X154948250Y-74763550D03*
X155448250Y-78363750D03*
X155448250Y-74763550D03*
X155948250Y-78363750D03*
X155948250Y-74763550D03*
X156448250Y-78363750D03*
X156448250Y-74763550D03*
X156948250Y-78363750D03*
X156948250Y-74763550D03*
X157448250Y-78363750D03*
X157448250Y-74763550D03*
X157948250Y-78363750D03*
X157948250Y-74763550D03*
X158448250Y-78363750D03*
X158448250Y-74763550D03*
X158948250Y-78363750D03*
X158948250Y-74763550D03*
X159448250Y-78363750D03*
X159448250Y-74763550D03*
X159948250Y-78363750D03*
X159948250Y-74763550D03*
X160448250Y-78363750D03*
X160448250Y-74763550D03*
X160948250Y-78363750D03*
X160948250Y-74763550D03*
X161448250Y-78363750D03*
X161448250Y-74763550D03*
X161948250Y-78363750D03*
X161948250Y-74763550D03*
X162448250Y-78363750D03*
X162448250Y-74763550D03*
D11*
X153198250Y-76563650D03*
X164198250Y-76563650D03*
%TD*%
D12*
%TO.C,SW1*%
X155443200Y-89219600D03*
X161943200Y-89219600D03*
X161943200Y-84719600D03*
X155443200Y-84719600D03*
%TD*%
D13*
%TO.C,R1*%
X153517600Y-92151200D03*
D14*
X163677599Y-92151199D03*
%TD*%
M02*
